<?xml version="1.0" encoding="UTF-8" standalone="no"?>
<!-- Created with Inkscape (http://www.inkscape.org/) -->

<svg
   xmlns:dc="http://purl.org/dc/elements/1.1/"
   xmlns:cc="http://creativecommons.org/ns#"
   xmlns:rdf="http://www.w3.org/1999/02/22-rdf-syntax-ns#"
   xmlns:svg="http://www.w3.org/2000/svg"
   xmlns="http://www.w3.org/2000/svg"
   xmlns:sodipodi="http://sodipodi.sourceforge.net/DTD/sodipodi-0.dtd"
   xmlns:inkscape="http://www.inkscape.org/namespaces/inkscape"
   width="512"
   height="512"
   viewBox="0 0 135.46667 135.46667"
   version="1.1"
   id="svg8"
   inkscape:version="0.92.4 (f8dce91, 2019-08-02)"
   sodipodi:docname="joker-poker-logo.svg">
  <defs
     id="defs2" />
  <sodipodi:namedview
     id="base"
     pagecolor="#ffffff"
     bordercolor="#666666"
     borderopacity="1.0"
     inkscape:pageopacity="0.0"
     inkscape:pageshadow="2"
     inkscape:zoom="0.35"
     inkscape:cx="347.16404"
     inkscape:cy="122.56556"
     inkscape:document-units="mm"
     inkscape:current-layer="layer1"
     showgrid="false"
     inkscape:window-width="1850"
     inkscape:window-height="1016"
     inkscape:window-x="70"
     inkscape:window-y="27"
     inkscape:window-maximized="1"
     units="px" />
  <metadata
     id="metadata5">
    <rdf:RDF>
      <cc:Work
         rdf:about="">
        <dc:format>image/svg+xml</dc:format>
        <dc:type
           rdf:resource="http://purl.org/dc/dcmitype/StillImage" />
        <dc:title></dc:title>
      </cc:Work>
    </rdf:RDF>
  </metadata>
  <g
     inkscape:label="Layer 1"
     inkscape:groupmode="layer"
     id="layer1"
     transform="translate(0,-161.53334)">
    <path
       inkscape:connector-curvature="0"
       id="path3745"
       d="m 47.33919,278.74137 1.447874,-12.80045 -8.426973,1.1957 c -4.634829,0.65768 -10.379757,1.93073 -12.766425,2.82909 -3.414434,1.28526 -2.971115,0.164 2.079642,-5.25889 3.53047,-3.79074 10.120949,-8.00145 14.645561,-9.35698 9.230054,-2.76545 9.108362,-2.58521 5.853996,-8.66595 -1.304942,-2.43825 -3.686116,-12.54779 -5.291689,-22.46578 -3.151282,-19.46729 -8.356532,-31.7748 -16.750707,-39.60667 -4.70322,-4.38825 -5.625118,-4.57416 -8.070748,-1.62731 -5.496616,6.62295 -15.2479697,2.50648 -15.2479697,-6.43689 0,-10.27118 10.7330337,-13.0987 16.4723017,-4.33936 2.446614,3.73392 5.526468,5.4242 9.883464,5.4242 9.544783,0 19.764386,5.0629 28.615166,14.17625 l 7.950691,8.18655 7.950695,-8.18655 c 8.850769,-9.11335 19.070298,-14.17625 28.615161,-14.17625 4.357,0 7.43677,-1.69028 9.88338,-5.4242 5.73927,-8.75934 16.47231,-5.93182 16.47231,4.33936 0,8.94337 -9.75136,13.05984 -15.24789,6.43689 -2.44571,-2.94685 -3.3676,-2.76094 -8.07083,1.62731 -8.394185,7.83187 -13.599344,20.13938 -16.750711,39.60667 -1.605493,9.91799 -3.986757,20.02753 -5.291609,22.46578 -3.254358,6.08074 -3.376137,5.9005 5.853998,8.66595 4.524529,1.35553 11.115022,5.56624 14.645492,9.35698 5.05075,5.42315 5.49407,6.54415 2.07964,5.25889 -2.38667,-0.89836 -8.131605,-2.17141 -12.766431,-2.82909 l -8.426982,-1.1957 1.447957,12.80045 1.447882,12.80054 -10.920997,-11.93342 -10.921065,-11.93342 -10.921072,11.93342 -10.921069,11.93342 z"
       style="fill:#585858;stroke-width:2.16970992"
       sodipodi:nodetypes="ccccccccccscscccscscccccccccccccccc" />
  </g>
</svg>
